<svg xmlns="http://www.w3.org/2000/svg">
    <symbol id="success" viewBox="0 0 48 48">
        <path d="M 24 3 C 12.413858 3 3 12.413866 3 24 C 3 35.586134 12.413858 45 24 45 C 35.586142 45 45 35.586134 45 24 C 45 12.413866 35.586142 3 24 3 z M 24 5 C 34.505263 5 43 13.494744 43 24 C 43 34.505256 34.505263 43 24 43 C 13.494737 43 5 34.505256 5 24 C 5 13.494744 13.494737 5 24 5 z M 32.076172 15.880859 C 31.822297 15.913234 31.579156 16.043219 31.410156 16.261719 L 22.009766 28.419922 L 16.369141 23.71875 C 15.945141 23.36475 15.313938 23.423656 14.960938 23.847656 L 13.681641 25.382812 C 13.328641 25.806812 13.384594 26.438016 13.808594 26.791016 L 21.441406 33.150391 C 21.712406 33.375391 22.050391 33.498047 22.400391 33.498047 C 22.454391 33.498047 22.509453 33.496234 22.564453 33.490234 C 22.969453 33.446234 23.338891 33.239969 23.587891 32.917969 L 34.574219 18.707031 C 34.912219 18.271031 34.833484 17.644641 34.396484 17.306641 L 32.814453 16.082031 C 32.595953 15.913031 32.330047 15.848484 32.076172 15.880859 z"/>
    </symbol>
</svg>